<?xml version="1.0" standalone="no"?>
<!DOCTYPE svg PUBLIC "-//W3C//DTD SVG 20010904//EN"
 "http://www.w3.org/TR/2001/REC-SVG-20010904/DTD/svg10.dtd">
<svg version="1.0" xmlns="http://www.w3.org/2000/svg"
 width="1200.000000pt" height="1200.000000pt" viewBox="0 0 1200.000000 1200.000000"
 preserveAspectRatio="xMidYMid meet">
<metadata>
Created by potrace 1.15, written by Peter Selinger 2001-2017
</metadata>
<g transform="translate(0.000000,1200.000000) scale(0.100000,-0.100000)"
fill="#000000" stroke="none">
<path d="M5675 11730 c-655 -44 -1181 -155 -1730 -362 -1397 -528 -2557 -1617
-3173 -2978 -317 -701 -479 -1410 -508 -2230 -10 -273 17 -671 67 -998 211
-1384 923 -2631 2019 -3538 395 -327 900 -634 1378 -838 1266 -540 2712 -601
4027 -169 361 118 834 331 1087 490 l37 23 42 -73 c154 -267 274 -414 432
-531 123 -91 318 -169 489 -196 107 -17 301 -8 405 19 459 119 877 478 1105
947 69 140 78 202 85 534 7 374 2 401 -145 755 -61 147 -97 209 -178 311 -73
92 -139 157 -205 201 l-36 24 64 112 c330 577 576 1298 672 1972 44 307 55
476 55 835 -1 358 -11 514 -55 820 -127 888 -473 1749 -1002 2490 -306 429
-718 856 -1147 1190 -872 679 -1892 1076 -3010 1175 -218 19 -603 26 -775 15z
m835 -265 c1034 -114 1933 -467 2739 -1075 223 -168 369 -296 586 -514 927
-930 1469 -2116 1575 -3441 14 -172 14 -623 0 -805 -61 -814 -310 -1624 -711
-2315 l-64 -110 -110 -7 c-122 -7 -361 -63 -501 -117 -125 -48 -238 -123 -334
-221 -135 -137 -207 -278 -237 -461 -20 -122 -10 -249 30 -369 46 -140 48
-127 -40 -201 -107 -89 -232 -185 -330 -253 l-83 -58 -44 96 c-24 52 -47 105
-51 118 -4 13 -24 64 -45 113 -21 50 -57 150 -79 223 -23 73 -67 183 -98 244
l-56 112 38 31 c422 332 766 702 1030 1107 52 79 76 107 91 107 34 1 88 43
109 86 13 27 20 63 21 110 1 64 6 80 62 191 197 393 340 853 407 1314 36 244
46 397 46 670 0 280 -18 500 -62 758 -34 201 -32 184 -16 205 10 15 17 16 44
6 49 -17 94 3 152 67 53 58 91 141 91 199 0 18 7 62 16 97 22 86 13 165 -34
302 -22 61 -42 118 -45 126 -5 11 5 21 35 35 57 27 80 67 74 125 -4 31 -1 51
9 64 8 11 15 40 15 64 0 60 -120 302 -168 340 -46 35 -102 35 -171 -1 -29 -16
-54 -27 -55 -25 -2 2 -16 27 -31 56 -36 66 -110 136 -179 168 l-53 24 -6 81
c-4 67 -12 95 -45 162 -47 98 -115 191 -177 242 l-46 37 31 34 c34 39 45 72
37 113 -4 18 1 42 13 67 25 48 25 68 -1 118 -21 41 -280 291 -328 315 -23 13
-91 11 -123 -3 -15 -7 -15 -4 -6 28 22 70 3 100 -158 252 -155 148 -191 174
-239 174 -17 0 -45 -8 -62 -17 -18 -10 -116 -108 -218 -218 -262 -281 -263
-281 -276 -268 -8 8 2 22 38 54 26 24 70 65 96 90 46 46 48 49 46 101 -1 33 5
64 15 83 19 37 20 75 2 118 -18 44 -33 54 -179 131 -112 59 -134 67 -170 64
-23 -3 -49 -8 -59 -12 -12 -6 -18 -1 -23 24 -12 53 -52 86 -191 159 -115 61
-142 71 -185 71 -41 0 -57 6 -87 30 -80 63 -266 130 -364 130 -33 0 -50 6 -64
21 -10 11 -27 25 -37 31 -21 11 -317 68 -354 68 -25 0 -25 1 -17 58 11 79 10
112 -7 146 -25 51 -56 65 -218 96 -125 24 -161 28 -192 20 -65 -18 -97 -72
-114 -192 -4 -27 -9 -48 -12 -48 -3 0 -30 7 -60 16 -43 13 -78 15 -152 10 -53
-4 -107 -7 -121 -6 -14 0 -94 3 -179 6 -164 6 -192 1 -231 -41 l-21 -23 -62
20 c-132 41 -353 16 -463 -54 -26 -16 -50 -26 -54 -21 -4 4 -22 52 -39 105
-26 77 -40 103 -67 128 -52 46 -95 41 -314 -31 -204 -68 -234 -86 -253 -157
-9 -33 -14 -40 -22 -30 -22 30 -61 48 -103 48 -61 0 -403 -113 -442 -146 -43
-37 -55 -91 -36 -159 9 -29 16 -68 16 -87 0 -18 36 -141 80 -273 44 -132 79
-244 77 -249 -2 -6 -17 10 -34 35 -47 68 -147 157 -206 184 -146 67 -294 53
-457 -44 -128 -77 -219 -178 -255 -284 l-19 -57 -43 0 c-196 0 -480 -256 -508
-458 l-7 -49 -44 -7 c-94 -13 -183 -76 -289 -209 -108 -134 -165 -256 -165
-353 0 -28 -5 -33 -49 -52 -93 -38 -184 -144 -215 -249 -8 -29 -26 -68 -39
-85 -13 -18 -46 -72 -71 -121 -49 -90 -49 -90 -129 -101 -65 -8 -145 -52 -201
-109 -121 -124 -210 -385 -186 -545 35 -234 54 -288 132 -366 74 -74 144 -99
253 -93 44 2 89 8 101 11 18 7 20 4 16 -27 -2 -19 3 -48 12 -65 14 -28 14 -38
1 -100 -70 -335 -102 -838 -76 -1197 45 -609 188 -1142 451 -1680 212 -433
499 -833 850 -1185 853 -854 1965 -1319 3162 -1321 208 -1 228 -2 224 -17 -19
-60 -46 -270 -46 -357 0 -128 28 -276 67 -347 37 -68 111 -148 175 -190 l53
-33 -70 -7 c-116 -12 -630 -11 -785 1 -1864 150 -3489 1202 -4389 2841 -345
629 -557 1316 -638 2070 -25 235 -25 836 1 1070 76 693 252 1303 546 1890 297
594 709 1144 1177 1572 190 174 245 220 428 358 842 637 1833 1009 2905 1090
177 13 750 4 920 -15z m246 -381 c23 -4 46 -9 52 -13 6 -4 -5 -80 -29 -206
-21 -110 -38 -208 -36 -217 1 -14 25 1 102 62 55 44 109 80 120 80 23 0 276
-47 281 -53 2 -2 -53 -41 -122 -87 -69 -46 -128 -88 -131 -93 -3 -5 12 -57 33
-115 l38 -107 8 43 c21 124 116 243 219 277 79 26 193 17 292 -25 164 -68 232
-157 232 -305 0 -51 -7 -99 -18 -132 -10 -29 -20 -53 -22 -53 -2 0 -106 36
-231 80 -234 82 -243 84 -244 37 0 -46 29 -88 77 -109 45 -20 50 -20 91 -5
l44 15 104 -48 c58 -26 107 -50 110 -53 11 -10 -86 -67 -138 -81 -100 -26
-294 20 -396 93 -32 24 -66 34 -178 55 -76 14 -141 31 -145 37 -3 6 -21 65
-39 130 -19 66 -37 122 -42 125 -4 3 -30 -9 -57 -27 -48 -32 -49 -33 -61 -108
-7 -42 -16 -79 -19 -82 -3 -3 -60 4 -126 17 -80 15 -158 23 -233 24 l-113 0 7
209 7 209 -26 26 c-28 28 -73 34 -108 16 -43 -23 -52 -64 -57 -262 l-5 -188
-101 0 c-151 0 -146 -3 -146 94 -1 78 -1 80 -15 49 -41 -96 -160 -173 -293
-191 -114 -16 -213 3 -280 55 -39 29 -47 26 -32 -11 5 -15 10 -33 10 -40 0
-15 -200 -80 -210 -69 -5 4 -52 142 -106 305 -54 164 -99 297 -100 295 -2 -1
6 -129 16 -282 11 -154 21 -302 22 -330 l3 -50 -94 -32 c-51 -18 -97 -31 -101
-28 -4 2 -85 126 -180 275 -95 149 -174 269 -176 267 -2 -2 41 -137 96 -301
l99 -297 -32 -14 c-79 -32 -178 -58 -186 -49 -7 7 -270 800 -275 828 -1 11
321 119 337 113 7 -3 78 -105 156 -227 79 -121 144 -220 146 -218 1 2 -6 124
-16 272 -11 148 -18 270 -17 270 2 1 79 26 171 56 120 39 170 51 175 43 4 -6
39 -109 77 -227 65 -201 85 -246 85 -196 0 25 33 92 67 137 59 77 184 126 323
126 151 0 253 -60 313 -184 l26 -54 1 133 0 132 120 0 120 0 0 -46 0 -46 39
31 c58 47 108 64 181 63 75 0 114 -12 153 -50 55 -52 62 -75 67 -237 l5 -149
59 319 c32 176 60 323 62 326 2 4 36 0 76 -7 40 -8 92 -17 114 -20z m1241
-631 c59 -31 109 -57 110 -58 2 -1 -15 -96 -37 -211 -22 -115 -40 -213 -40
-218 0 -4 69 62 153 149 l152 157 108 -57 c59 -31 107 -58 107 -59 0 -4 -571
-510 -604 -535 -47 -36 -107 -61 -146 -60 -64 0 -180 51 -269 118 -22 17 -23
20 -11 57 7 21 21 59 32 83 l19 44 22 -20 c40 -36 94 -63 126 -63 47 0 88 25
95 57 3 16 17 173 33 351 15 177 31 322 35 322 4 0 56 -25 115 -57z m-4380
-278 c64 -19 128 -68 181 -139 l42 -56 -205 -136 c-113 -76 -205 -141 -205
-146 0 -18 67 -48 109 -48 36 0 49 6 77 34 19 19 37 48 40 65 6 27 19 38 109
86 56 30 106 55 110 55 14 0 -3 -117 -24 -166 -38 -86 -161 -191 -281 -241
-65 -27 -163 -30 -217 -8 -19 8 -37 15 -39 15 -2 0 0 -22 3 -48 12 -105 -56
-231 -176 -325 -96 -76 -156 -99 -247 -95 l-75 3 27 -21 c15 -12 40 -26 56
-30 16 -5 30 -13 30 -18 1 -4 -28 -46 -63 -92 -67 -87 -77 -93 -131 -69 -16 6
-18 1 -18 -46 -1 -134 -129 -289 -251 -305 -41 -5 -47 -9 -40 -23 51 -96 -9
-256 -118 -319 l-49 -28 129 -72 129 -73 -16 -32 c-26 -50 -105 -187 -109
-187 -2 0 -74 40 -161 89 -88 49 -160 88 -161 87 -1 -1 8 -22 20 -47 26 -53
35 -176 17 -246 -22 -91 -72 -203 -115 -262 -62 -85 -129 -116 -247 -116 -47
0 -89 2 -92 5 -3 3 12 62 32 131 l36 126 46 -4 c60 -6 107 21 138 78 60 112
-26 220 -116 144 -16 -13 -55 -62 -86 -108 -103 -155 -181 -216 -282 -225
-148 -12 -270 132 -249 297 15 122 77 270 142 342 55 61 105 83 190 83 40 0
75 -3 78 -6 4 -4 2 -22 -3 -40 -6 -18 -22 -72 -37 -119 l-25 -86 -46 -6 c-24
-2 -54 -13 -65 -23 -53 -48 -68 -134 -30 -166 44 -35 61 -21 156 122 107 162
184 227 285 240 l45 5 -123 69 c-68 37 -122 71 -120 75 2 3 27 50 56 104 l54
98 33 -21 c43 -26 45 -26 34 12 -34 119 30 258 139 304 55 23 156 21 235 -5
37 -13 69 -27 72 -32 15 -23 33 -6 37 36 3 27 33 102 71 183 84 173 88 188 53
202 -36 13 -67 -3 -99 -53 -29 -44 -34 -76 -16 -109 10 -18 2 -30 -72 -104
-46 -46 -87 -84 -90 -84 -15 0 -59 106 -59 142 0 82 63 195 177 318 118 128
199 147 318 74 30 -18 55 -32 55 -31 0 1 -11 24 -25 51 -20 40 -25 64 -25 126
0 106 34 172 136 270 98 93 174 130 264 130 60 0 150 -27 150 -45 0 -3 -31
-43 -69 -89 l-69 -83 -54 5 c-51 4 -57 2 -90 -30 -63 -59 -63 -125 2 -207 44
-56 110 -88 156 -77 73 19 110 76 101 154 l-5 47 73 54 74 54 -32 37 c-61 67
-82 124 -82 225 0 75 4 98 24 137 41 81 137 165 239 210 90 40 150 46 229 23z
m5596 -211 l88 -81 -130 -238 c-72 -131 -130 -240 -128 -241 1 -2 104 62 227
141 124 80 229 144 233 142 4 -1 66 -56 137 -122 l128 -119 -101 -109 c-56
-60 -131 -141 -166 -179 l-65 -70 35 8 c64 17 162 9 215 -16 70 -34 162 -131
209 -220 38 -71 40 -79 40 -165 0 -74 -4 -97 -23 -132 -12 -23 -22 -44 -22
-45 0 -2 30 -1 66 0 117 6 201 -46 252 -156 20 -44 23 -65 20 -117 l-4 -64
134 68 133 68 42 -81 c55 -107 68 -137 63 -145 -2 -3 -142 -76 -310 -161 -168
-85 -306 -160 -306 -167 0 -6 18 -50 40 -98 l40 -87 -26 -31 c-22 -26 -25 -38
-21 -75 7 -62 35 -97 78 -97 l34 0 -1 70 c-1 39 -4 120 -8 180 -8 105 -7 112
16 155 43 80 156 118 234 77 115 -60 222 -327 184 -462 -12 -41 -82 -137 -92
-125 -11 13 -88 200 -88 213 0 8 7 21 16 28 12 10 15 25 11 56 -6 57 -31 93
-62 93 -40 0 -45 -31 -24 -155 10 -61 19 -128 19 -151 0 -182 -188 -268 -327
-150 -99 86 -187 357 -150 464 14 40 14 43 -1 37 -10 -4 -23 -8 -31 -9 -13 -1
-111 167 -111 191 0 7 17 21 37 32 l38 19 -40 11 c-67 18 -110 55 -144 122
-40 81 -42 153 -6 225 14 27 25 50 25 52 0 1 -15 2 -34 2 -18 0 -58 8 -87 17
-79 25 -191 139 -248 254 -40 79 -42 88 -39 156 l3 72 -27 -25 c-14 -15 -31
-25 -36 -23 -5 2 -44 36 -85 75 l-75 72 166 178 c92 99 190 204 219 234 28 30
50 56 49 58 -2 1 -126 -76 -277 -173 -150 -96 -278 -175 -284 -175 -6 0 -41
31 -79 69 l-69 69 133 244 c73 133 147 268 163 298 37 67 51 81 -217 -207
-109 -117 -202 -213 -207 -213 -5 0 -44 33 -86 74 l-77 73 39 45 c22 24 159
171 304 326 l264 282 46 -42 c25 -23 86 -79 134 -124z m-2921 13 c79 -4 188
-16 243 -27 133 -27 148 -26 189 11 l35 30 6 -24 c14 -53 46 -69 198 -98 115
-22 154 -34 195 -60 28 -17 87 -44 129 -59 78 -27 78 -28 84 -68 3 -22 11 -47
18 -56 9 -10 11 -29 8 -52 -11 -64 12 -97 112 -163 128 -84 186 -105 291 -106
77 0 90 3 145 33 33 17 129 93 212 168 135 119 155 134 173 124 26 -14 25 -22
-7 -60 -31 -38 -43 -114 -22 -151 7 -13 13 -51 14 -83 l0 -59 109 -103 c79
-75 119 -105 142 -110 26 -5 35 -13 44 -40 16 -47 192 -212 236 -220 25 -4 33
-12 37 -33 5 -23 112 -139 194 -208 12 -10 33 -46 46 -81 61 -155 189 -304
314 -367 1 0 9 -41 17 -90 18 -111 43 -172 96 -228 22 -24 40 -52 40 -61 0 -9
31 -77 69 -150 47 -92 71 -151 76 -187 4 -30 18 -92 32 -138 68 -238 200 -371
367 -371 l53 0 16 -87 c135 -749 66 -1549 -194 -2250 -53 -142 -173 -421 -188
-436 -5 -5 -26 2 -47 16 -22 13 -77 43 -124 68 -106 54 -178 126 -225 223
-123 258 -16 535 229 591 120 28 187 73 236 159 24 40 30 63 30 110 0 52 -3
61 -33 91 -40 40 -92 51 -172 36 -83 -15 -158 -63 -258 -162 -81 -81 -183
-149 -223 -149 -21 0 -24 30 -22 216 4 228 -8 277 -90 365 -30 33 -60 59 -67
59 -24 0 -110 87 -145 146 -19 33 -55 88 -81 123 l-48 64 42 21 c51 25 81 80
82 146 0 32 10 61 34 103 29 51 32 63 27 110 -3 29 -7 84 -9 122 -3 70 -17
113 -44 129 -12 7 -10 13 10 35 61 65 83 146 93 351 10 203 -17 332 -78 374
-21 15 -21 17 -6 50 79 165 26 438 -108 556 -40 35 -105 70 -131 70 -27 1 -54
19 -133 90 -260 234 -495 346 -793 379 -292 33 -681 -76 -942 -265 -109 -78
-272 -231 -355 -333 -120 -146 -223 -373 -255 -559 -18 -100 -19 -344 -3 -452
6 -41 11 -160 12 -265 1 -148 5 -204 19 -255 27 -100 121 -282 173 -335 48
-50 132 -95 178 -95 50 0 107 -46 144 -117 9 -16 9 -29 1 -49 -14 -39 -2 -95
32 -147 36 -55 97 -82 168 -75 l47 5 -61 -42 c-82 -56 -96 -60 -142 -37 -21
11 -78 30 -128 42 -54 14 -120 39 -165 64 -41 23 -88 48 -105 55 -63 28 -262
92 -331 106 -40 8 -94 26 -122 40 -27 14 -54 25 -60 25 -5 0 -15 13 -21 29 -7
15 -41 59 -77 96 -35 37 -64 71 -64 76 0 5 -41 53 -91 107 -112 119 -162 192
-205 295 -39 93 -45 102 -104 139 -107 68 -191 184 -215 298 -12 56 -72 205
-99 247 -14 21 -51 68 -83 105 -32 36 -102 118 -156 181 -99 117 -133 141
-164 115 -28 -23 -32 -56 -23 -169 8 -102 13 -119 52 -198 23 -47 64 -109 90
-138 26 -29 48 -58 48 -63 0 -6 9 -19 21 -31 16 -16 22 -38 26 -97 l6 -77 -24
18 c-39 28 -132 74 -247 124 -94 40 -118 46 -197 51 -172 9 -302 -20 -497
-111 -74 -35 -101 -53 -112 -76 -22 -41 -20 -55 10 -91 35 -41 114 -80 161
-80 21 0 83 14 138 31 179 55 222 59 320 34 109 -29 321 -140 370 -195 l20
-22 -35 8 c-19 5 -91 9 -160 8 -109 0 -135 -4 -204 -28 -44 -15 -107 -42 -140
-60 -34 -18 -110 -51 -171 -72 -166 -57 -186 -77 -122 -121 17 -12 58 -40 91
-63 51 -35 65 -40 115 -40 78 0 149 21 265 79 127 63 131 64 217 55 l71 -7
-33 -19 c-75 -44 -225 -263 -268 -391 -28 -82 -28 -167 0 -193 46 -41 105 -7
286 168 156 150 196 172 315 170 194 -2 283 -44 493 -227 92 -80 125 -93 175
-73 33 14 35 13 145 -62 139 -94 310 -220 384 -283 121 -103 240 -187 319
-226 131 -66 263 -88 326 -56 16 9 30 14 32 12 1 -1 0 -21 -3 -45 -6 -42 -6
-42 -47 -42 -59 0 -178 -32 -273 -73 -124 -54 -247 -139 -349 -243 l-91 -92
-20 41 c-11 23 -44 74 -73 112 -28 39 -115 167 -193 285 -160 242 -239 344
-332 426 -57 51 -63 59 -54 81 25 66 -13 123 -113 168 -85 39 -213 47 -279 18
-144 -64 -429 -286 -429 -334 0 -23 38 -40 62 -28 9 5 18 9 21 9 2 0 -51 -55
-117 -123 -67 -67 -160 -168 -209 -224 -48 -56 -138 -153 -199 -215 -148 -149
-279 -294 -357 -396 -35 -45 -66 -82 -67 -82 -2 0 -30 24 -63 53 -76 68 -154
93 -216 68 -16 -7 -29 1 -66 40 -40 43 -50 49 -86 49 -26 0 -53 -8 -75 -24
l-35 -24 -5 63 c-4 43 -15 81 -36 121 -17 33 -36 88 -42 124 -22 127 -167 382
-267 470 -48 42 -135 80 -184 80 -66 0 -127 -46 -167 -125 l-20 -39 -7 61 -7
61 -66 -5 c-148 -12 -177 -57 -137 -212 9 -35 19 -148 26 -273 17 -354 43
-539 90 -631 11 -21 48 -71 82 -110 34 -40 80 -97 102 -127 22 -30 85 -109
140 -175 56 -66 120 -149 143 -184 24 -35 69 -95 101 -135 88 -108 241 -316
241 -327 0 -30 136 -179 163 -179 13 0 112 107 142 153 18 28 18 28 -10 57
l-28 30 59 26 c32 15 75 41 95 58 52 44 108 87 154 117 65 43 131 119 160 187
21 47 32 61 44 57 45 -17 97 -15 129 4 43 28 55 62 49 143 l-4 68 111 92 c141
118 264 227 391 349 55 53 118 111 140 129 22 18 111 105 198 192 l157 160 0
-59 c0 -111 41 -280 118 -488 16 -44 41 -129 56 -190 20 -85 43 -143 102 -260
41 -82 97 -184 123 -225 154 -240 191 -293 259 -373 46 -54 102 -106 144 -134
50 -34 67 -51 63 -62 -17 -44 -27 -134 -22 -206 8 -98 31 -182 97 -349 118
-298 154 -467 135 -641 l-7 -68 -296 6 c-332 6 -506 24 -798 82 -906 183
-1751 674 -2365 1373 -606 691 -965 1515 -1059 2432 -41 403 -11 936 75 1306
4 17 14 22 60 27 80 8 176 56 235 118 79 83 180 313 180 411 0 36 10 35 77 -3
60 -35 110 -40 148 -15 29 19 52 54 124 188 41 77 52 105 51 140 -1 24 6 64
16 89 26 68 9 118 -55 164 l-48 34 11 62 c11 56 15 63 49 80 59 31 143 123
182 201 19 39 35 76 35 82 0 6 12 17 28 24 24 11 149 160 197 235 9 15 22 27
29 27 23 0 133 82 203 151 71 71 125 155 137 215 7 31 10 32 69 38 116 13 245
80 361 187 103 96 122 139 156 349 27 160 23 156 55 60 37 -114 50 -137 85
-155 42 -22 57 -20 198 26 93 30 134 48 152 68 21 24 31 27 67 23 58 -6 258
61 293 98 19 20 31 25 50 19 33 -9 52 -4 190 43 l115 39 85 -12 c105 -15 213
-1 304 38 33 14 72 25 86 24 14 -1 100 -4 191 -7 152 -5 167 -4 189 14 23 19
24 19 56 -3 28 -19 51 -23 176 -28z m1591 -1438 c237 -48 448 -172 685 -400
89 -87 93 -93 112 -162 17 -65 26 -143 22 -206 -2 -19 -8 -14 -41 35 -22 33
-63 82 -91 109 l-52 50 48 -74 c55 -87 104 -195 103 -231 0 -14 -12 -52 -27
-85 l-28 -59 -35 74 c-20 41 -46 86 -58 100 l-22 25 21 -42 c23 -49 50 -154
50 -201 0 -26 -43 -112 -56 -112 -1 0 -17 46 -34 103 -227 735 -925 1024
-1513 625 -115 -78 -276 -249 -366 -388 -145 -224 -198 -623 -128 -968 20 -97
21 -112 8 -110 -24 5 -50 89 -72 237 -45 301 -43 389 15 612 50 189 50 193 16
109 -112 -275 -135 -612 -60 -860 21 -70 11 -78 -23 -17 -46 80 -82 341 -74
527 13 278 91 516 238 730 89 130 169 211 313 319 182 137 290 193 457 237
191 50 419 59 592 23z m-225 -335 c42 -8 114 -31 160 -49 301 -122 496 -362
616 -757 l34 -112 -47 -58 c-25 -31 -49 -57 -53 -57 -4 -1 -22 27 -39 62 -41
81 -100 167 -159 233 -27 29 -54 63 -61 76 -40 75 -138 162 -245 216 -78 40
-133 54 -224 58 -41 1 -129 6 -195 10 -297 17 -477 -68 -657 -310 -136 -182
-190 -390 -168 -643 13 -149 60 -276 173 -466 31 -53 43 -87 54 -153 13 -87
47 -168 106 -253 18 -27 24 -42 15 -39 -8 4 -40 9 -71 13 -56 7 -57 8 -87 63
-29 54 -30 59 -18 105 10 42 10 58 -5 115 -24 93 -99 238 -163 315 l-53 64
-22 134 c-26 156 -30 394 -9 549 22 171 78 327 157 443 153 223 389 392 618
442 83 19 251 18 343 -1z m1158 -189 c44 -43 56 -65 75 -125 19 -63 21 -88 17
-194 -6 -141 -17 -174 -86 -255 -27 -31 -59 -71 -72 -90 -12 -18 -45 -59 -72
-90 l-50 -56 6 -57 c3 -32 9 -84 12 -116 5 -51 3 -66 -21 -111 -23 -46 -187
-231 -204 -231 -3 0 -6 71 -7 158 -1 111 -6 175 -18 221 l-16 64 88 91 c107
111 141 159 199 284 91 194 97 215 97 342 -1 89 -5 129 -21 177 l-21 62 21
-11 c12 -6 45 -34 73 -63z m-1103 -280 c94 -20 180 -68 267 -152 97 -92 137
-158 157 -262 16 -79 16 -83 -6 -158 -13 -43 -34 -100 -49 -126 -27 -51 -147
-181 -194 -211 -26 -17 -27 -17 -80 18 -78 52 -158 77 -268 83 -173 10 -317
-33 -423 -127 -43 -38 -166 -182 -187 -220 -11 -19 -63 17 -148 103 -60 61
-64 68 -88 158 -37 138 -32 241 22 409 43 133 69 170 152 213 89 47 195 71
252 58 45 -10 90 -36 90 -52 0 -19 18 0 24 26 27 107 172 221 310 244 75 13
94 12 169 -4z m-3012 -233 c74 -80 219 -249 252 -295 47 -63 87 -160 118 -288
17 -67 38 -133 47 -147 15 -23 15 -24 -3 -19 -42 14 -171 27 -197 21 l-28 -6
0 61 c0 34 3 61 6 61 3 0 19 -8 35 -17 46 -28 46 -6 -1 42 -24 25 -42 46 -39
48 2 2 19 10 37 17 l34 13 -39 14 c-21 8 -50 17 -65 20 -33 6 -34 14 -8 72 11
24 20 45 20 48 0 3 -16 -4 -36 -16 -19 -12 -37 -21 -39 -21 -2 0 -31 32 -65
72 -72 85 -97 155 -107 290 -8 109 2 113 78 30z m4217 -65 c6 -7 9 -22 7 -33
-2 -10 -6 -32 -10 -47 -3 -16 -22 -47 -43 -70 -20 -23 -46 -52 -56 -65 l-20
-23 45 20 c24 11 63 41 87 66 47 52 52 44 28 -37 -20 -63 -33 -87 -69 -125
-46 -48 -9 -43 43 5 l40 39 0 -45 c0 -62 -39 -170 -76 -209 -40 -42 -21 -43
29 -2 l38 31 -7 -28 c-19 -81 -97 -181 -158 -205 -25 -9 -98 -48 -163 -86
-162 -96 -278 -161 -280 -159 -1 1 9 40 23 86 21 75 29 89 67 120 119 99 185
161 217 205 33 46 35 54 34 120 -1 38 -7 96 -14 129 -11 53 -10 61 7 81 63 78
209 244 214 245 4 0 11 -6 17 -13z m-704 -264 c-18 -82 -45 -160 -125 -375
-49 -130 -89 -245 -89 -255 -1 -16 -2 -16 -10 -1 -10 16 6 88 64 282 14 48 26
94 26 100 0 7 18 36 40 66 42 56 80 144 80 185 0 14 5 25 10 25 6 0 8 -11 4
-27z m3 -250 c-42 -109 -93 -245 -113 -303 -38 -112 -135 -353 -139 -348 -3 3
20 79 88 293 19 61 55 162 79 225 24 63 62 172 83 242 39 126 40 127 59 108
19 -19 18 -22 -57 -217z m116 101 c5 -31 -5 -62 -70 -203 -57 -124 -203 -490
-203 -507 0 -2 -60 -24 -65 -24 -2 0 12 28 31 63 18 35 56 122 83 193 27 71
59 152 71 179 12 28 37 93 56 145 77 212 86 226 97 154z m-3925 -59 c72 -17
154 -57 266 -128 l78 -50 -28 -15 c-16 -8 -38 -22 -49 -32 -28 -25 -84 -52
-94 -46 -4 3 -7 35 -6 71 2 36 -1 65 -6 65 -5 0 -9 -8 -9 -17 -1 -10 -13 -33
-29 -51 l-28 -33 -75 29 c-42 16 -91 32 -111 36 l-35 7 46 44 c26 24 44 46 40
50 -10 10 -150 -58 -190 -94 -63 -55 -223 -99 -293 -80 -20 6 -50 23 -68 39
l-32 28 24 26 c37 39 110 83 177 107 160 56 306 71 422 44z m3914 -172 c-17
-37 -47 -113 -67 -168 -28 -75 -118 -271 -129 -281 0 -1 -11 -5 -24 -9 l-23
-7 25 50 c14 27 52 116 86 196 81 197 153 338 158 309 2 -12 -10 -52 -26 -90z
m-639 57 c115 -44 186 -118 237 -252 29 -74 32 -91 28 -158 -4 -59 -12 -89
-38 -142 l-34 -67 -107 -50 c-124 -58 -311 -124 -501 -176 l-131 -37 -28 29
c-39 40 -136 213 -150 268 -6 25 -9 81 -7 124 4 64 11 92 40 152 32 66 124
196 133 187 2 -1 -7 -34 -21 -73 -24 -73 -30 -115 -15 -115 4 0 31 31 59 68
59 80 83 103 89 85 2 -7 18 -28 34 -49 16 -20 29 -45 29 -55 0 -22 21 -69 30
-69 4 0 10 26 13 58 4 31 9 86 13 121 l7 64 98 -7 c113 -7 126 3 65 49 -19 14
-42 38 -51 52 l-17 26 83 -5 c50 -4 108 -15 142 -28z m-2621 -145 c35 -8 79
-17 99 -20 90 -13 189 -105 238 -222 31 -74 78 -137 185 -247 99 -102 116
-141 97 -215 -6 -24 -9 -46 -7 -48 7 -7 46 59 46 77 1 11 6 9 20 -8 25 -30 14
-68 -40 -132 -23 -28 -37 -50 -31 -50 29 0 80 31 108 64 25 31 32 34 37 21 20
-54 -154 -176 -226 -158 -27 7 -78 41 -78 52 0 4 18 17 40 30 47 26 63 45 25
31 -14 -5 -53 -7 -86 -3 -58 6 -65 9 -133 72 -39 37 -92 78 -117 93 -56 33
-230 110 -235 105 -3 -2 31 -25 75 -50 89 -52 109 -71 60 -57 -56 16 -172 22
-254 12 -44 -5 -82 -8 -84 -6 -2 2 3 23 12 46 9 23 15 43 13 45 -2 3 -29 -33
-60 -79 -31 -46 -67 -96 -80 -112 l-24 -29 -12 44 -13 44 -23 -85 c-24 -90
-44 -115 -136 -177 -37 -25 -39 -25 -64 -8 -22 14 -25 22 -21 48 15 89 65 184
181 340 73 99 109 118 231 125 119 6 134 15 73 41 -68 29 -185 51 -273 51 -68
0 -76 2 -71 18 14 47 17 72 10 72 -5 0 -30 -21 -56 -47 l-48 -48 -73 4 -72 3
28 -22 27 -22 -20 -28 c-25 -35 -113 -70 -174 -70 -46 0 -150 45 -180 79 -17
19 -17 20 21 39 21 11 85 36 143 57 58 21 127 48 153 62 112 56 266 76 404 52
l63 -11 0 -44 c0 -24 3 -44 7 -44 4 0 17 12 29 28 l22 27 29 -26 c28 -27 166
-119 178 -119 10 0 -58 91 -84 111 -33 27 -23 31 40 18 119 -25 180 -77 215
-181 17 -51 31 -68 39 -46 5 14 -8 56 -63 200 l-30 77 47 3 46 3 -32 18 c-53
28 -183 65 -258 72 -87 8 -169 45 -190 85 -31 59 -3 71 152 64 51 -2 121 -10
155 -19z m3812 -57 c46 -42 43 -61 -16 -101 -29 -19 -70 -41 -90 -48 -58 -20
-46 -33 24 -26 66 6 91 -2 108 -33 8 -15 6 -29 -10 -60 -11 -22 -22 -40 -25
-40 -2 0 -30 7 -62 15 -53 14 -137 20 -103 8 54 -20 86 -41 111 -75 24 -34 26
-44 18 -66 -14 -35 -48 -72 -68 -72 -27 1 -48 23 -86 93 -48 88 -60 94 -52 29
3 -29 5 -52 4 -52 -1 0 -23 11 -49 24 -26 13 -70 27 -98 31 l-51 7 45 32 c50
34 62 55 19 32 -16 -7 -67 -28 -115 -44 -100 -36 -159 -64 -206 -99 -46 -34
-329 -164 -489 -223 -73 -27 -194 -81 -270 -119 -191 -95 -317 -141 -390 -141
-113 0 -202 75 -144 121 18 15 39 19 97 19 63 0 85 5 162 39 48 21 123 49 166
61 133 37 432 150 576 218 47 22 121 56 165 77 215 100 304 147 353 185 96 74
393 229 439 230 7 0 23 -10 37 -22z m-2417 -72 c193 -82 189 -79 255 -212 53
-109 59 -158 24 -218 -16 -28 -36 -48 -51 -52 -31 -8 -155 29 -186 56 l-24 20
30 -2 c50 -3 95 2 95 10 0 4 -39 23 -88 42 l-87 35 55 5 55 5 -48 24 c-26 13
-53 31 -60 41 -7 9 -31 27 -54 38 -23 12 -45 26 -48 32 -4 6 8 2 27 -10 33
-20 128 -29 128 -12 0 4 -12 15 -27 24 -31 18 -176 149 -171 153 2 2 35 -12
73 -31 71 -34 105 -42 105 -24 0 6 -4 10 -8 10 -14 0 -142 126 -142 139 0 7
15 0 34 -14 19 -14 70 -41 113 -59z m2028 -391 c120 -31 216 -115 321 -283 37
-59 83 -126 101 -149 18 -23 33 -44 33 -47 0 -3 -18 -6 -40 -6 -22 0 -40 -3
-40 -7 0 -5 37 -24 82 -43 45 -19 94 -46 110 -58 26 -22 28 -29 28 -93 0 -64
-27 -168 -51 -194 -12 -12 -12 -35 0 -35 4 0 20 17 34 38 15 20 38 51 53 67
l26 30 -7 -40 c-7 -47 -63 -169 -105 -232 -17 -24 -30 -46 -30 -49 0 -15 48
30 87 81 45 59 46 59 39 25 -3 -19 -21 -64 -39 -100 -27 -55 -40 -69 -82 -92
-68 -36 -111 -89 -126 -152 -6 -28 -9 -62 -8 -75 4 -22 6 -20 36 21 69 97 120
135 293 219 91 44 187 92 213 105 l48 25 26 -21 c26 -20 49 -25 77 -14 22 8
20 21 -4 29 -11 4 -28 17 -36 30 -49 74 87 194 219 195 72 0 107 -28 107 -85
0 -87 -62 -154 -191 -206 -46 -19 -112 -48 -147 -66 -34 -18 -64 -33 -66 -33
-3 0 -12 8 -22 17 -16 16 -18 16 -35 -6 -11 -13 -29 -55 -41 -95 -30 -100 -48
-133 -112 -198 -59 -60 -69 -76 -37 -58 52 27 101 -3 101 -63 0 -66 76 -242
114 -264 7 -4 42 -39 76 -77 50 -55 60 -73 56 -92 -7 -27 -4 -28 43 -14 44 12
74 -4 168 -88 57 -51 75 -75 87 -111 23 -75 27 -98 17 -124 -23 -59 -86 -38
-156 51 -35 44 -45 65 -45 94 0 20 5 40 10 43 16 10 1 25 -26 25 -13 0 -33 -6
-44 -12 -17 -11 -30 -7 -87 21 -38 18 -89 46 -115 62 -81 52 -95 53 -236 11
l-126 -37 46 -13 c56 -15 73 -40 80 -109 3 -36 13 -63 32 -88 29 -38 29 -38
10 -148 -4 -27 0 -61 15 -112 28 -94 20 -153 -22 -173 -38 -18 -81 -7 -112 30
-34 40 -35 111 -2 160 l24 34 -24 18 c-20 15 -23 23 -18 49 4 18 11 36 16 41
15 16 10 24 -10 19 -30 -8 -68 24 -96 80 -27 55 -31 90 -15 133 6 15 9 29 7
31 -9 8 -114 -45 -148 -74 -43 -38 -72 -53 -100 -53 -22 0 -21 -2 10 -28 21
-17 33 -36 33 -52 0 -32 -17 -129 -25 -136 -3 -3 -15 4 -26 15 -27 27 -50 28
-27 2 10 -11 19 -35 19 -53 2 -28 -3 -35 -30 -48 -44 -20 -41 -33 7 -28 37 3
40 2 40 -21 0 -56 -74 -160 -126 -175 -28 -8 -86 32 -94 64 -9 38 5 89 34 119
30 31 33 63 11 114 -42 101 -6 187 130 308 52 46 95 88 95 92 0 14 -60 -3
-135 -38 -104 -48 -186 -113 -252 -202 -50 -68 -68 -83 -134 -118 -43 -23
-108 -69 -149 -108 -79 -73 -112 -89 -137 -64 -15 14 -15 20 1 62 10 25 38 70
62 100 42 52 48 55 90 55 47 0 52 5 30 35 -13 19 -8 24 62 80 41 33 96 81 122
107 40 40 55 48 101 55 30 4 58 6 62 5 5 -2 7 3 5 10 -3 7 -17 15 -31 18 -69
13 -84 67 -42 149 28 57 58 71 145 71 31 0 60 3 63 7 4 3 -10 16 -30 28 -43
23 -50 43 -52 148 -1 81 13 120 66 175 35 37 45 42 85 42 34 0 52 -6 71 -24
15 -14 29 -20 33 -15 3 5 5 49 5 97 -1 48 1 170 3 271 3 101 3 181 0 178 -16
-15 -64 -302 -64 -379 0 -5 -4 -8 -10 -8 -6 0 -9 73 -9 188 1 130 -4 213 -15
272 -9 47 -19 140 -23 208 -5 105 -8 122 -22 120 -18 -4 -70 -93 -71 -120 0
-16 -11 -17 -117 -12 -65 3 -130 10 -145 14 -37 12 -35 -1 2 -29 31 -22 103
-38 193 -43 27 -1 50 -5 53 -10 7 -11 -73 -10 -191 3 -158 17 -165 19 -187 45
-28 32 -48 31 -48 -2 0 -44 56 -86 151 -117 99 -31 176 -47 232 -47 31 0 38
-3 30 -11 -14 -14 -247 -18 -317 -5 -63 11 -55 -7 18 -39 78 -34 200 -58 263
-52 39 4 53 2 50 -6 -7 -23 -82 -40 -192 -45 l-109 -4 46 -24 c33 -17 72 -26
133 -30 71 -6 85 -10 83 -23 -4 -19 -153 -44 -207 -34 -26 4 -32 3 -26 -7 14
-22 89 -50 138 -50 34 0 47 -4 47 -14 0 -11 -21 -16 -77 -21 -43 -4 -87 -11
-98 -15 -18 -7 -17 -9 10 -20 17 -6 52 -16 79 -21 60 -11 61 -12 46 -39 -11
-20 -16 -21 -98 -15 l-87 6 25 -20 c14 -11 46 -28 73 -37 51 -17 54 -21 35
-47 -11 -14 -22 -15 -73 -7 -33 5 -70 12 -82 16 -37 11 -27 -12 25 -52 26 -21
49 -40 51 -41 3 -2 -2 -10 -10 -18 -16 -16 -55 -10 -121 19 -21 9 -38 13 -38
10 0 -3 20 -34 43 -68 l44 -63 -22 -27 -22 -27 -28 46 c-29 45 -51 60 -41 28
3 -10 8 -55 11 -99 4 -63 2 -84 -9 -93 -12 -10 -16 -2 -26 46 -7 32 -21 78
-31 103 l-18 45 0 -142 c-1 -143 -12 -185 -25 -95 -4 26 -16 65 -27 87 l-19
40 5 -90 c3 -49 2 -106 -3 -125 -7 -32 -10 -24 -41 95 -39 153 -61 200 -148
317 l-65 88 -55 -71 -56 -71 22 -26 c36 -46 100 -165 117 -217 19 -59 29 -253
16 -310 l-9 -40 -12 60 c-7 33 -16 74 -21 90 -7 27 -9 24 -11 -25 -2 -30 -4
-73 -4 -95 -4 -110 -11 -111 -45 -8 l-25 77 -6 -114 c-7 -128 -6 -120 -18
-120 -5 0 -12 24 -15 53 -8 60 -26 99 -26 56 0 -22 -20 -104 -36 -149 -4 -9
-13 8 -23 40 l-17 55 -6 -43 c-6 -40 -14 -61 -20 -51 -2 2 -23 45 -48 94 -56
113 -217 358 -230 350 -12 -8 -6 -19 73 -148 74 -123 107 -202 146 -356 49
-196 64 -328 65 -586 1 -274 -7 -320 -109 -621 -36 -105 -65 -199 -65 -209 0
-45 -11 1 -30 130 -63 428 -236 897 -425 1154 -30 41 -41 63 -33 66 7 3 41 13
76 24 37 11 82 35 109 57 l45 37 20 -24 c10 -13 42 -61 70 -107 28 -45 53 -81
55 -79 7 8 -83 187 -133 263 -91 138 -199 217 -299 218 -93 1 -166 -52 -270
-199 -38 -53 -85 -108 -104 -121 -20 -13 -48 -33 -64 -44 -15 -13 -25 -16 -22
-8 2 7 21 65 41 128 38 122 66 179 116 235 42 48 11 47 -42 -1 -93 -84 -183
-273 -250 -527 -36 -133 -59 -201 -59 -172 -1 6 11 53 24 105 14 52 32 157 41
233 8 76 22 159 29 184 8 26 12 49 10 52 -9 8 -46 -89 -66 -172 -11 -45 -36
-147 -57 -227 l-37 -145 -6 115 c-3 63 -6 106 -7 95 -5 -48 -69 -307 -75 -299
-3 5 -11 47 -18 93 -13 88 -27 88 -28 1 -2 -66 -15 -79 -31 -30 -7 22 -16 40
-19 40 -3 0 -4 -25 -3 -55 2 -30 0 -55 -5 -55 -60 0 -404 685 -555 1105 -83
230 -134 531 -124 725 6 124 2 124 -35 0 -16 -53 -32 -84 -54 -105 -18 -16
-74 -77 -125 -135 -51 -58 -152 -166 -224 -240 -72 -74 -122 -127 -111 -119
11 9 88 72 171 141 83 68 157 128 165 133 8 5 -31 -40 -87 -101 -55 -60 -148
-163 -206 -229 -130 -147 -213 -228 -343 -330 -55 -43 -131 -108 -168 -144
l-69 -66 -16 25 c-10 13 -54 70 -99 127 -76 94 -83 106 -83 147 0 77 45 196
105 280 30 42 46 72 36 67 -29 -16 -149 -148 -170 -188 -17 -33 -20 -35 -21
-14 -1 51 64 145 195 281 72 74 189 205 261 290 130 154 441 460 468 460 8 0
55 -16 105 -35 160 -62 256 -41 422 93 43 34 79 62 82 62 13 0 178 -217 255
-335 47 -71 108 -166 137 -210 76 -117 119 -200 155 -292 17 -45 44 -96 61
-114 l29 -31 -20 -28 -20 -28 -73 77 c-41 42 -86 94 -101 116 -41 63 -30 32
24 -67 28 -50 50 -95 50 -99 0 -5 11 -28 25 -50 24 -37 27 -79 6 -79 -14 0
-80 77 -121 143 -23 37 -44 67 -46 67 -2 0 7 -23 21 -51 14 -27 40 -87 56
-132 17 -45 34 -86 40 -91 13 -14 11 -26 -5 -26 -8 0 -43 38 -78 85 -35 47
-66 85 -70 85 -4 0 10 -33 32 -72 43 -81 85 -187 77 -195 -3 -3 -26 17 -52 44
-34 35 -44 41 -36 23 5 -14 20 -58 32 -98 28 -92 16 -113 -30 -51 -36 50 -39
39 -10 -56 12 -39 25 -117 29 -175 5 -69 15 -125 29 -162 32 -82 45 -75 37 20
-18 203 43 374 241 674 98 150 176 236 290 322 171 128 331 202 531 244 69 15
127 32 129 38 3 8 -15 15 -47 19 l-50 7 0 48 c0 26 7 65 16 86 9 20 19 58 24
83 44 254 61 303 146 421 30 42 43 51 102 71 37 12 88 32 114 45 26 13 50 24
52 24 3 0 -6 -17 -20 -37 -68 -99 -149 -290 -185 -431 -18 -73 -21 -107 -18
-237 l4 -152 -72 -11 c-90 -14 -157 -44 -270 -120 -158 -106 -266 -223 -349
-377 -44 -82 -42 -82 22 5 65 89 236 263 309 315 125 89 224 126 332 126 l65
0 -6 27 c-3 15 -11 63 -17 108 -27 195 63 491 224 736 55 84 57 85 122 106 36
12 68 22 71 22 3 0 -15 -24 -39 -52 -114 -135 -234 -363 -274 -524 -22 -92
-23 -348 -1 -415 l15 -46 -71 0 c-75 0 -147 -19 -228 -59 -96 -49 -303 -240
-409 -379 -64 -84 -70 -98 -17 -40 74 81 342 306 426 357 104 64 160 82 253
82 l77 0 -20 65 c-42 145 -32 325 28 494 59 165 219 423 326 524 18 17 92 58
163 91 72 33 168 79 215 103 47 24 90 46 95 48 6 2 -14 -22 -43 -54 -49 -53
-112 -158 -112 -186 0 -6 18 16 40 49 87 130 227 238 340 262 54 12 71 11 135
-5z m-2554 -339 c41 -19 133 -52 206 -74 72 -23 154 -53 183 -67 28 -14 82
-35 118 -47 37 -11 114 -44 172 -74 140 -72 247 -92 313 -58 l31 17 -16 -24
c-28 -43 -135 -72 -179 -49 -29 16 -24 -6 7 -26 16 -11 47 -17 84 -18 68 -1
66 -14 -8 -46 -51 -23 -49 -31 9 -39 l40 -6 -26 -35 -26 -35 23 -5 c21 -5 19
-8 -23 -53 -43 -44 -49 -47 -97 -47 -61 0 -168 35 -256 83 -34 19 -140 92
-236 162 -216 159 -304 220 -398 275 l-73 43 36 24 c29 20 65 68 65 87 0 3
-15 -3 -32 -14 -49 -30 -64 -25 -34 11 14 17 26 35 26 40 0 15 13 11 91 -25z
m-687 -186 c43 -18 90 -43 104 -55 24 -21 25 -24 12 -43 -25 -34 -168 -142
-224 -168 -73 -34 -143 -32 -248 7 -65 24 -94 30 -136 26 l-53 -4 58 59 c61
63 140 124 239 184 53 32 65 35 114 31 32 -2 88 -18 134 -37z m-2473 -390 c74
-48 211 -255 271 -405 36 -92 36 -148 -2 -270 -42 -137 -21 -142 40 -10 l28
60 22 -49 c19 -41 22 -62 18 -123 l-5 -74 21 19 c53 49 111 62 173 39 44 -17
67 -51 86 -130 21 -86 75 -169 195 -298 48 -52 117 -135 151 -185 35 -49 79
-106 99 -126 l35 -37 -18 -48 -18 -47 -21 29 c-37 51 -79 92 -71 70 4 -11 15
-53 25 -92 15 -62 15 -75 3 -84 -7 -7 -15 -10 -17 -8 -1 2 -20 32 -41 67 -63
103 -67 98 -26 -43 18 -64 18 -71 4 -88 -15 -16 -18 -15 -42 30 -30 54 -73
114 -78 109 -5 -4 25 -135 37 -163 7 -17 6 -23 -4 -23 -14 0 -49 42 -104 125
-37 55 -37 50 7 -80 17 -49 31 -91 31 -91 0 -1 -7 -5 -16 -8 -10 -4 -28 6 -48
27 -65 63 -126 116 -126 109 0 -4 7 -18 16 -31 9 -12 33 -56 54 -96 l38 -73
-29 -28 c-17 -17 -32 -24 -37 -18 -5 5 -38 43 -74 84 -196 224 -460 550 -530
654 -43 65 -99 158 -123 205 -41 83 -126 326 -140 401 -9 54 -38 161 -41 157
-2 -2 14 -108 35 -236 43 -258 59 -302 149 -422 27 -35 88 -122 136 -194 158
-235 303 -436 352 -487 27 -27 96 -91 154 -141 58 -50 111 -96 118 -102 10 -9
-2 -24 -54 -70 l-67 -59 -61 65 c-34 36 -81 101 -106 144 -57 103 -226 350
-299 438 -99 121 -169 210 -248 317 -43 58 -107 142 -144 188 -41 51 -71 99
-78 125 -19 71 -40 270 -56 537 -9 140 -23 286 -32 324 -15 64 -15 70 1 81 18
14 93 28 105 20 8 -5 16 -60 30 -223 5 -51 11 -95 14 -98 2 -2 6 26 9 63 5 75
29 132 74 177 35 35 63 46 115 46 31 0 47 -8 80 -37 107 -97 195 -283 200
-426 1 -22 4 -14 10 23 9 62 -2 163 -26 230 -26 73 -63 128 -143 211 -41 44
-70 79 -65 79 5 0 30 -13 54 -30z m5909 -277 c1 -27 7 -82 14 -123 15 -82 14
-90 -13 -90 -21 0 -100 -49 -130 -81 -11 -12 -21 -21 -21 -18 0 4 100 273 121
327 19 45 29 40 29 -15z m-881 -458 c74 -111 110 -224 126 -401 l7 -70 -38
-34 -39 -34 -7 100 c-12 172 -62 319 -141 409 l-34 40 30 37 c16 21 33 35 38
32 4 -2 30 -38 58 -79z m648 8 c-35 -49 -87 -192 -87 -241 0 -15 -9 -66 -19
-114 -24 -115 -58 -166 -201 -299 -114 -106 -185 -193 -214 -263 -28 -68 -18
-158 21 -183 44 -29 94 -3 203 101 52 51 127 113 165 139 41 27 88 69 114 102
40 53 119 120 128 111 2 -2 -8 -27 -23 -56 -22 -43 -29 -71 -35 -159 -5 -71
-16 -132 -33 -184 -23 -69 -25 -83 -15 -122 30 -119 167 -141 244 -41 31 40
104 281 131 426 15 86 41 160 55 160 13 0 17 -13 28 -79 8 -46 22 -81 51 -126
40 -61 41 -66 49 -178 8 -126 19 -154 74 -187 60 -37 125 -17 177 52 28 37 30
76 14 309 -8 112 -13 132 -42 192 -39 78 -39 115 -1 136 33 18 63 10 130 -34
29 -20 84 -53 123 -73 75 -39 156 -109 156 -133 0 -20 -180 -285 -273 -404
-209 -266 -500 -558 -754 -757 l-60 -47 -56 83 c-65 95 -290 320 -382 382 -79
53 -242 145 -330 185 -38 18 -100 52 -137 76 -58 38 -68 49 -74 81 -3 20 -16
87 -29 147 -15 74 -20 114 -13 122 5 7 46 33 91 59 128 74 473 396 572 534 29
41 83 109 119 150 37 41 87 101 113 132 26 31 49 55 51 53 2 -1 -12 -25 -31
-52z m-4910 -113 c52 -31 174 -133 223 -186 62 -67 199 -242 230 -295 14 -23
39 -64 56 -90 17 -26 34 -60 38 -76 6 -24 -5 -16 -72 52 -43 44 -84 89 -90
100 -6 11 -14 17 -18 12 -9 -8 37 -97 76 -147 30 -38 63 -110 52 -110 -10 0
-106 108 -192 215 -36 44 -97 117 -137 162 -91 103 -188 233 -219 295 -28 56
-28 53 -8 72 20 20 22 20 61 -4z m3342 -504 c26 -14 74 -48 105 -77 l57 -52
-38 -18 c-21 -11 -53 -29 -72 -41 -25 -16 -54 -23 -110 -26 -66 -4 -85 -1
-138 22 -34 14 -78 26 -98 26 -44 0 -40 8 35 93 89 99 165 120 259 73z m-223
-273 c71 -40 83 -50 147 -127 93 -110 167 -274 275 -612 108 -336 137 -467
151 -690 15 -246 -15 -545 -74 -734 -58 -184 -199 -560 -243 -644 -59 -115
-156 -219 -221 -236 -56 -15 -109 -5 -198 35 -172 79 -278 253 -290 475 -5 81
0 124 31 290 46 250 59 406 46 557 -17 188 -38 270 -138 533 -54 141 -76 253
-69 350 8 97 25 152 102 335 35 83 66 173 70 202 10 76 107 211 180 251 91 51
159 55 231 15z m1025 -512 c93 -33 202 -86 269 -133 124 -86 130 -88 71 -23
-29 33 -81 79 -115 103 -81 57 -94 82 -25 46 146 -73 236 -140 376 -277 159
-156 200 -205 273 -328 132 -223 179 -331 294 -672 121 -357 165 -448 384
-792 132 -208 185 -277 279 -366 114 -107 229 -174 341 -198 74 -16 245 -13
322 4 73 17 183 55 176 62 -2 2 -32 -1 -67 -7 -34 -6 -115 -11 -178 -11 -139
0 -268 29 -379 85 -81 41 -96 56 -25 25 108 -46 202 -63 343 -63 109 0 150 4
210 21 488 141 818 464 904 884 18 90 47 420 40 464 -24 149 -92 428 -124 510
-28 72 -118 221 -167 275 -66 73 -220 191 -293 224 -130 59 -269 70 -383 31
-62 -22 -55 -29 14 -14 57 12 188 7 229 -10 21 -8 14 -10 -36 -10 -141 -2
-407 -108 -536 -215 -118 -98 -202 -216 -222 -311 -4 -18 10 0 35 47 118 222
393 396 670 423 38 4 74 3 84 -2 12 -7 -5 -12 -63 -16 -118 -9 -205 -33 -322
-89 -91 -44 -116 -62 -186 -132 -122 -123 -172 -246 -161 -398 16 -245 248
-427 429 -339 62 30 147 121 192 207 40 77 86 131 86 101 0 -9 -25 -65 -55
-124 -54 -106 -54 -107 -20 -73 19 19 57 73 85 120 52 88 59 89 36 5 -21 -81
-46 -124 -109 -192 -68 -72 -63 -83 9 -20 66 57 93 89 132 155 l34 57 -7 -40
c-4 -22 -18 -66 -31 -97 -29 -70 -30 -81 -3 -48 33 41 59 97 73 158 l14 57 1
-42 c4 -180 -177 -386 -434 -495 -73 -31 -223 -19 -321 26 -163 75 -284 233
-325 427 -15 69 -6 275 16 354 25 93 108 253 168 326 123 148 284 237 541 300
253 61 462 57 601 -14 56 -28 216 -163 240 -203 12 -18 33 -45 48 -60 36 -36
148 -261 208 -419 56 -148 79 -266 78 -400 l-1 -90 -18 100 c-22 125 -33 166
-77 285 -38 103 -63 145 -38 65 52 -169 78 -362 79 -595 1 -165 -2 -194 -22
-264 -31 -107 -80 -211 -149 -314 -61 -91 -227 -271 -293 -317 -61 -42 -40
-42 27 0 89 57 207 164 302 275 l22 25 -20 -41 c-45 -94 -232 -304 -362 -409
-101 -82 -227 -160 -351 -220 -220 -105 -335 -130 -575 -123 -141 5 -166 8
-233 33 -118 43 -282 133 -359 197 -239 197 -548 722 -670 1139 -86 293 -226
568 -378 744 -153 178 -405 417 -488 463 -78 43 -30 30 58 -16 41 -21 105 -70
165 -125 91 -85 198 -164 208 -154 3 2 -11 16 -31 31 -19 15 -60 59 -92 97
-80 99 -221 214 -363 294 -145 82 -152 89 -59 56z m6 -192 c32 -12 81 -37 109
-55 62 -39 420 -379 464 -440 l31 -44 -54 -34 c-94 -60 -308 -177 -417 -229
-199 -93 -485 -205 -496 -194 -9 9 25 168 67 312 26 90 65 192 109 285 75 157
95 223 106 343 4 42 10 77 15 77 5 0 34 -10 66 -21z m2662 -166 c-62 -85 -192
-246 -273 -338 -84 -96 -258 -275 -267 -275 -26 0 -45 154 -29 240 31 174 166
313 369 381 60 21 233 59 239 54 2 -2 -15 -30 -39 -62z m407 8 c96 -63 188
-172 232 -275 12 -26 84 -228 112 -310 25 -76 34 -236 22 -404 -28 -379 -84
-541 -247 -723 -106 -118 -152 -157 -294 -250 -156 -103 -252 -144 -405 -170
-131 -23 -187 -24 -301 -4 -263 46 -443 182 -624 475 -43 69 -83 135 -90 147
-10 21 -4 27 91 95 129 90 241 177 392 302 47 39 48 40 74 22 119 -77 234
-106 350 -87 273 45 512 264 553 506 15 87 2 139 -44 189 -43 46 -77 53 -129
30 -58 -26 -101 -74 -154 -171 -62 -114 -94 -148 -162 -173 -53 -20 -122 -23
-139 -6 -3 3 41 54 98 113 189 196 392 442 534 646 33 47 63 86 66 87 3 0 32
-17 65 -39z m-2289 -673 c80 -162 124 -272 158 -388 15 -52 53 -158 86 -235
32 -76 56 -142 51 -146 -29 -30 -418 -232 -593 -310 -240 -106 -558 -217 -809
-283 -137 -36 -408 -96 -434 -96 -9 0 2 24 31 67 53 78 99 175 143 300 68 190
168 523 185 614 l18 95 144 48 c258 87 585 240 817 381 67 41 126 74 132 74 5
1 37 -54 71 -121z"/>
<path d="M5328 10682 c-108 -66 -55 -312 67 -312 80 0 121 53 118 152 -4 138
-95 216 -185 160z"/>
<path d="M7415 10491 c-28 -16 -72 -69 -63 -75 5 -4 217 -76 223 -76 3 0 5 21
5 48 0 57 -20 89 -66 108 -44 18 -63 18 -99 -5z"/>
<path d="M3385 9978 c-41 -32 -57 -77 -44 -124 6 -22 13 -41 15 -43 5 -6 194
120 194 129 0 5 -14 20 -31 34 -39 33 -95 35 -134 4z"/>
<path d="M2501 8851 c-34 -89 -39 -132 -15 -155 36 -37 99 -8 123 57 21 55 14
94 -25 137 -20 22 -40 40 -44 40 -4 0 -21 -36 -39 -79z"/>
<path d="M1959 8391 c-54 -55 -31 -127 57 -182 77 -47 153 -41 189 15 22 33
14 90 -16 122 -33 36 -118 74 -162 74 -29 0 -46 -7 -68 -29z"/>
<path d="M9583 8880 c-13 -5 -23 -13 -23 -17 0 -4 31 -50 69 -101 73 -99 76
-100 110 -35 36 71 -18 164 -95 162 -22 0 -49 -4 -61 -9z"/>
<path d="M9425 8762 c-32 -43 -27 -113 9 -151 16 -16 47 -36 69 -43 34 -11 46
-24 88 -93 27 -44 50 -84 53 -90 2 -5 19 4 37 22 24 23 30 35 22 45 -5 7 -63
86 -127 176 -65 89 -121 162 -124 162 -4 0 -16 -13 -27 -28z"/>
<path d="M9955 8270 c-134 -29 -206 -140 -136 -211 38 -37 88 -39 157 -4 66
33 94 64 101 112 4 32 0 45 -21 70 -28 34 -55 42 -101 33z"/>
<path d="M6263 9880 c-17 -4 -54 -21 -83 -39 -129 -80 -260 -111 -730 -176
-102 -14 -222 -34 -268 -45 -258 -61 -415 -220 -380 -384 8 -38 22 -61 65
-105 50 -52 54 -59 48 -91 -9 -48 -50 -133 -76 -156 -20 -18 -21 -18 -50 16
-53 64 -56 90 -33 300 5 47 2 62 -23 109 -39 75 -88 113 -155 119 -34 3 -65
-1 -88 -11 -33 -14 -33 -15 -9 -16 67 -2 149 -109 149 -195 0 -92 -70 -167
-170 -181 -44 -6 -46 -5 -73 34 -33 48 -57 112 -57 155 0 24 -3 27 -10 16 -33
-51 14 -170 88 -223 65 -47 74 -49 118 -21 47 28 63 31 41 6 -24 -26 -22 -37
23 -104 50 -75 51 -93 5 -108 -42 -14 -94 -6 -155 23 -40 20 -45 26 -52 66 -4
25 -23 77 -42 117 -38 80 -28 75 -171 89 -57 6 -65 4 -125 -30 -138 -78 -226
-157 -441 -401 -253 -286 -357 -378 -502 -443 -86 -39 -127 -75 -127 -112 0
-37 24 -84 45 -93 30 -11 109 -7 181 10 l70 17 44 -29 c58 -39 140 -40 220 -3
52 24 58 24 110 12 91 -23 306 -11 480 26 80 17 151 31 158 31 7 0 12 -12 12
-29 0 -40 38 -91 94 -126 47 -29 55 -30 158 -30 l108 0 0 -62 c0 -78 9 -102
62 -159 62 -68 177 -114 285 -114 l52 0 -5 -37 c-3 -21 -7 -46 -9 -56 -10 -51
46 -146 116 -197 41 -29 127 -60 169 -60 18 0 21 -4 17 -22 -3 -12 -1 -44 5
-72 12 -59 55 -107 109 -122 33 -10 34 -11 34 -64 1 -30 6 -65 13 -77 19 -35
62 -63 97 -63 31 0 33 -2 39 -50 8 -60 34 -93 112 -140 32 -19 78 -54 103 -77
24 -23 62 -51 85 -63 l41 -20 8 77 c14 142 -18 288 -76 341 -24 23 -25 24 -11
77 25 93 -7 169 -84 202 -31 13 -32 15 -17 36 35 50 3 180 -58 236 l-26 23 22
57 c44 113 21 260 -55 346 l-41 46 21 22 c32 35 50 79 62 149 12 70 0 149 -36
225 -16 32 -88 103 -106 103 -5 0 13 42 39 92 58 115 65 170 33 246 l-22 52
33 39 c19 22 47 58 62 81 20 29 44 49 82 66 47 22 56 31 66 64 7 21 43 78 82
127 38 48 80 110 93 137 15 32 39 62 70 85 60 45 79 77 104 177 17 66 28 86
64 124 74 78 86 98 86 150 0 29 -6 52 -14 59 -22 19 -68 28 -103 21z m17 -62
c0 -7 -5 -30 -11 -51 -21 -78 -110 -146 -274 -209 -132 -52 -142 -53 -149 -23
-11 43 11 101 51 134 38 31 80 50 263 119 123 46 120 46 120 30z m-549 -195
c-36 -67 -142 -124 -284 -154 -136 -28 -152 -25 -127 21 13 24 62 40 126 40
59 0 87 8 78 21 -3 6 -41 7 -92 3 -82 -7 -86 -6 -73 10 28 34 73 47 194 57 67
5 127 12 132 14 6 2 20 4 33 4 19 1 21 -2 13 -16z m-531 -62 c0 -15 -64 -89
-128 -147 -103 -92 -141 -182 -112 -258 12 -32 6 -32 -45 -3 -51 29 -85 80
-85 126 1 101 110 224 243 272 54 19 127 25 127 10z m924 -63 c-15 -50 -37
-80 -81 -112 -60 -43 -178 -85 -271 -94 -71 -8 -72 -8 -72 15 0 50 44 105 109
138 30 15 260 71 304 74 15 1 17 -4 11 -21z m-531 -121 c-42 -71 -151 -113
-269 -104 -76 6 -170 39 -159 57 3 6 47 10 101 10 56 0 94 4 94 10 0 6 -26 10
-59 10 -33 0 -62 4 -65 9 -12 19 74 39 194 46 68 4 136 11 150 15 33 9 38 -10
13 -53z m357 -104 c0 -4 -9 -26 -21 -50 -17 -35 -32 -48 -85 -74 -58 -29 -77
-33 -167 -36 -119 -5 -136 2 -118 45 29 70 94 101 216 102 33 1 78 5 100 9 53
11 75 12 75 4z m-562 -18 c45 0 82 -1 82 -3 0 -39 -119 -102 -192 -102 -47 0
-63 -12 -32 -24 9 -3 36 -6 60 -6 24 0 44 -4 44 -9 0 -16 -42 -61 -70 -76 -59
-30 -163 -14 -201 31 -13 16 -10 17 44 11 50 -5 57 -4 47 9 -7 7 -30 19 -51
24 -24 7 -39 17 -39 27 0 13 9 14 56 8 40 -5 54 -3 50 4 -4 6 -20 11 -35 11
-27 0 -87 37 -77 47 3 3 37 -1 76 -8 50 -9 74 -9 81 -2 8 8 -2 13 -33 18 -47
8 -88 29 -88 47 0 8 27 9 98 2 53 -5 134 -9 180 -9z m375 -195 c31 -7 57 -17
57 -21 0 -12 -76 -68 -116 -85 -66 -28 -149 -36 -235 -23 -50 7 -79 16 -79 24
0 18 42 76 71 98 48 35 163 38 302 7z m-1559 -31 c15 -12 60 -65 100 -118 41
-53 84 -106 97 -118 33 -30 91 -53 136 -53 28 0 34 -3 23 -10 -22 -14 -92 -12
-139 5 -78 27 -121 66 -171 154 -7 13 -17 12 -69 -2 -79 -22 -100 -21 -127 3
l-21 21 -29 -24 c-59 -48 -109 -77 -136 -77 -25 0 -26 2 -17 29 17 49 102 119
202 167 51 24 99 44 108 44 9 0 28 -9 43 -21z m946 -24 c23 -8 53 -15 66 -15
31 0 31 -20 -1 -54 -46 -50 -129 -62 -164 -24 -26 27 -17 42 20 34 36 -7 37 3
4 34 -19 18 -22 26 -13 32 19 11 40 10 88 -7z m-477 -101 c18 -36 234 -417
279 -490 34 -56 48 -91 48 -122 -1 -71 -18 -54 -107 104 -137 241 -273 499
-273 517 0 13 12 24 31 26 3 1 13 -15 22 -35z m851 -21 c50 -9 92 -18 94 -19
2 -1 -3 -15 -12 -32 -25 -48 -75 -66 -170 -59 -85 6 -157 26 -164 45 -2 7 12
28 31 47 30 30 42 35 83 35 26 0 88 -8 138 -17z m30 -154 c30 -14 49 -56 49
-108 0 -48 -44 -146 -85 -188 -30 -31 -93 -61 -105 -50 -3 3 9 43 27 88 23 60
30 93 26 118 -5 34 -50 91 -71 91 -5 0 -35 -16 -65 -37 -44 -30 -51 -37 -36
-43 17 -6 16 -8 -8 -28 -25 -19 -70 -32 -173 -47 -48 -8 -48 -7 -29 38 42 101
194 175 363 176 45 1 93 -4 107 -10z m-1785 -27 c-5 -16 -30 -48 -54 -72 -50
-49 -55 -61 -25 -53 11 3 46 34 76 69 33 37 65 64 76 64 18 0 17 -4 -9 -52
-44 -82 -137 -169 -233 -217 -76 -38 -110 -49 -110 -36 0 3 12 29 26 58 26 52
229 267 252 267 8 0 8 -8 1 -28z m357 -117 c-15 -29 -48 -73 -75 -98 -49 -46
-131 -95 -131 -79 0 5 28 45 61 88 34 44 71 99 81 123 15 33 22 40 29 30 8
-11 13 -9 29 10 11 13 21 31 22 40 1 9 3 -1 5 -23 3 -27 -3 -54 -21 -91z
m-166 104 c0 -6 -11 -25 -25 -41 -47 -55 -13 -53 36 3 57 64 63 49 17 -42 -63
-126 -188 -221 -273 -205 -19 4 -35 11 -35 16 0 6 4 10 9 10 17 0 148 130 201
199 52 68 70 84 70 60z m314 -31 c12 -35 0 -87 -32 -139 -27 -42 -94 -90 -107
-77 -4 4 18 54 49 113 31 58 56 113 56 121 0 24 24 11 34 -18z m1164 -83 c6
-75 -16 -110 -108 -168 -56 -35 -228 -113 -234 -106 -2 2 -13 23 -25 47 -26
50 -23 56 48 105 59 41 293 165 306 162 6 -1 11 -19 13 -40z m-648 -188 c0
-56 -44 -86 -176 -118 -159 -39 -198 -72 -176 -147 26 -87 99 -110 223 -72 40
12 174 72 298 135 302 150 351 168 468 169 86 1 94 -1 134 -29 65 -46 104
-128 104 -219 0 -60 -4 -79 -28 -119 -38 -64 -157 -145 -157 -106 0 6 7 39 16
73 29 110 10 176 -65 227 -29 20 -47 24 -105 23 -86 -1 -147 -21 -425 -139
-239 -100 -320 -125 -414 -125 -67 0 -71 1 -108 39 -47 47 -50 80 -14 151 65
129 275 278 393 280 27 0 32 -4 32 -23z m-400 -14 c0 -19 -30 -104 -50 -144
-37 -73 -110 -139 -155 -139 -14 0 -14 3 -2 28 8 15 22 52 32 82 28 86 63 148
93 164 28 16 82 21 82 9z m-234 -50 c-17 -125 -115 -246 -226 -278 l-25 -7 22
23 c11 13 38 56 59 94 63 119 95 165 133 191 19 13 37 24 40 24 2 0 1 -21 -3
-47z m-672 -1 c3 -5 -4 -22 -14 -39 -49 -81 -386 -251 -423 -214 -27 27 186
202 295 241 55 20 133 26 142 12z m451 -29 c-26 -61 -73 -129 -121 -173 -44
-41 -150 -98 -161 -87 -8 9 120 187 164 228 42 41 89 68 116 69 16 0 16 -2 2
-37z m991 -9 c7 -23 17 -51 23 -61 9 -19 1 -25 -98 -72 -157 -74 -268 -92
-309 -48 l-22 23 23 31 c29 42 128 98 240 138 118 42 128 41 143 -11z m-1231
-11 c-52 -125 -213 -249 -312 -241 l-38 3 123 118 c115 110 180 156 225 157
16 0 16 -2 2 -37z m1774 -187 c19 -40 16 -105 -7 -135 -23 -32 -114 -102 -126
-98 -10 3 -116 197 -116 213 0 16 46 36 115 49 79 15 116 7 134 -29z m-341
-172 l50 -96 -32 -19 c-42 -26 -70 -33 -114 -26 -90 15 -129 122 -67 187 33
35 58 48 92 49 18 1 31 -17 71 -95z m-281 -68 c28 -43 77 -80 127 -96 54 -17
142 -7 284 34 213 62 299 69 371 32 62 -33 87 -205 43 -297 -26 -53 -71 -101
-74 -78 -1 8 -2 53 -2 100 -1 72 -4 91 -21 109 -61 67 -149 69 -420 10 -262
-58 -342 -50 -403 40 -29 43 -36 72 -28 115 9 45 30 65 69 65 25 0 37 -7 54
-34z m492 -312 c29 -36 64 -114 56 -122 -13 -14 -91 -7 -118 11 -35 23 -36 65
-1 106 31 38 37 38 63 5z m-152 -37 c7 -23 22 -56 34 -71 41 -52 76 -59 268
-57 202 2 235 -5 250 -52 21 -66 17 -117 -11 -152 -20 -26 -22 -27 -35 -9 -10
14 -12 34 -7 71 6 51 5 53 -22 64 -30 12 -188 7 -339 -10 -94 -11 -120 -2
-180 59 -33 34 -39 47 -43 94 -4 48 -1 57 21 80 36 36 51 32 64 -17z m423
-392 c191 -13 248 -47 235 -140 -3 -27 -7 -51 -9 -52 -1 -2 -24 17 -51 42 -57
53 -145 85 -235 85 -96 0 -140 27 -140 85 l0 34 53 -24 c37 -17 78 -26 147
-30z m-18 -204 c18 -11 70 -27 115 -35 106 -20 143 -36 176 -75 37 -45 34 -57
-7 -26 -58 44 -129 66 -207 63 -77 -2 -102 12 -114 65 -8 32 -6 33 37 8z"/>
<path d="M7349 7995 c-188 -36 -358 -124 -509 -265 -53 -49 -38 -41 42 23 119
95 295 180 442 212 64 14 111 17 235 13 146 -5 153 -4 111 10 -65 20 -230 24
-321 7z"/>
<path d="M7564 7494 l38 -26 -38 -18 c-50 -22 -79 -51 -104 -100 -36 -71 -19
-178 34 -216 20 -14 19 -15 -21 -12 -64 4 -56 -14 17 -40 61 -22 347 -59 359
-46 9 9 -24 33 -58 41 l-35 9 35 21 c43 27 79 89 79 137 0 20 2 36 5 36 2 0
19 -9 37 -20 38 -23 48 -25 48 -7 -1 13 -24 31 -179 140 -111 78 -200 127
-233 127 -19 0 -17 -4 16 -26z m111 -70 c9 -9 14 -23 10 -32 -3 -8 3 -21 15
-29 27 -19 25 -55 -5 -83 -57 -54 -150 -6 -99 52 16 16 15 18 -2 25 -38 13
-42 35 -14 63 24 24 73 26 95 4z m135 -114 c26 -50 25 -56 -6 -118 -59 -119
-203 -124 -297 -12 -15 17 -27 36 -27 42 0 6 9 -1 20 -14 31 -40 85 -61 136
-53 81 12 155 111 137 183 -9 36 13 19 37 -28z"/>
<path d="M6928 7332 c-55 -62 -188 -445 -164 -469 3 -4 6 2 6 12 0 16 4 15 28
-8 34 -33 98 -60 123 -52 27 9 24 -7 -7 -36 -30 -28 -58 -78 -49 -87 4 -4 11
2 17 13 6 11 50 58 98 105 75 73 180 204 180 224 0 13 -25 5 -58 -20 l-34 -27
7 24 c13 39 8 125 -9 158 -20 38 -69 64 -107 59 -23 -4 -28 -1 -25 11 15 48
23 102 16 106 -4 2 -14 -3 -22 -13z m120 -261 c6 -82 -29 -160 -83 -185 -62
-30 -109 -30 -145 0 -37 31 -44 65 -8 40 51 -36 139 -8 178 56 27 45 27 131 0
176 -30 48 -24 51 17 10 32 -33 37 -44 41 -97z"/>
<path d="M7697 6502 c-52 -76 -187 -212 -210 -212 -8 0 -35 -9 -61 -20 -41
-19 -58 -20 -177 -14 -121 7 -136 10 -202 41 -38 19 -74 30 -79 25 -12 -12 87
-90 147 -117 138 -62 297 -85 361 -52 35 18 118 104 161 167 30 44 95 169 113
216 19 48 -9 31 -53 -34z"/>
<path d="M7621 5580 c-34 -87 -41 -113 -32 -124 7 -8 51 -34 98 -57 78 -39
226 -150 246 -185 9 -16 27 -19 27 -4 0 5 27 76 61 156 33 81 56 150 52 154
-49 41 -102 75 -155 100 -60 28 -202 70 -237 70 -12 0 -30 -33 -60 -110z m189
25 c87 -29 156 -63 213 -106 7 -5 -68 -205 -84 -223 -5 -6 -31 12 -63 42 -35
33 -91 69 -158 103 l-105 52 13 46 c30 99 46 133 62 126 8 -3 63 -21 122 -40z"/>
<path d="M8875 4509 c15 -46 62 -115 94 -136 22 -15 29 -24 20 -27 -8 -2 -29
-9 -48 -15 -49 -16 -87 -14 -129 8 -39 20 -97 77 -126 124 -10 16 -20 26 -23
23 -11 -10 76 -142 120 -183 76 -70 123 -75 314 -34 48 11 105 23 127 26 l38
6 -28 31 c-35 37 -80 60 -159 83 -74 21 -124 46 -150 75 -11 12 -28 26 -38 32
-16 8 -18 7 -12 -13z"/>
<path d="M9175 4213 c-99 -30 -365 -65 -463 -61 -39 2 -72 0 -72 -3 0 -13 71
-40 130 -51 71 -12 111 -6 295 47 172 48 217 65 212 78 -5 17 -18 16 -102 -10z"/>
<path d="M6484 3476 c-48 -21 -79 -68 -151 -226 -120 -265 -127 -289 -127
-420 0 -107 3 -128 53 -315 78 -297 215 -705 236 -705 12 0 1 47 -109 475 -25
94 -50 202 -56 240 -6 39 -22 113 -35 165 -36 142 -39 185 -21 263 34 146 150
407 208 469 26 28 32 30 71 24 23 -4 66 -18 96 -31 66 -31 80 -31 55 -4 -55
60 -161 92 -220 65z"/>
<path d="M6845 3048 c24 -72 88 -335 99 -413 20 -132 107 -505 118 -505 4 0 8
46 8 102 0 104 -37 298 -96 506 -30 108 -114 322 -125 322 -5 0 -6 -6 -4 -12z"/>
<path d="M6980 1533 c-19 -119 -53 -227 -113 -353 -116 -245 -202 -360 -268
-360 -27 0 -48 16 -135 102 -57 56 -106 99 -109 96 -14 -13 69 -150 119 -195
152 -139 251 -73 423 284 75 156 112 287 116 411 3 112 -16 121 -33 15z"/>
</g>
</svg>
